<svg 
fill="#F78421" 
version="1.1" id="Capa_1" 
	 viewBox="0 0 512 512" xml:space="preserve"
             class="w-full h-full"
     >
<g>
	<path d="M437.022,74.984C388.67,26.63,324.381,0,256,0C187.624,0,123.338,26.63,74.984,74.984S0,187.624,0,256
		c0,68.388,26.63,132.678,74.984,181.028C123.335,485.375,187.621,512,256,512c68.385,0,132.673-26.625,181.021-74.972
		C485.372,388.679,512,324.389,512,256C512,187.623,485.372,123.336,437.022,74.984z M425.708,425.714
		C380.381,471.039,320.111,496,256,496c-64.106,0-124.374-24.961-169.703-70.286C40.965,380.386,16,320.113,16,256
		c0-64.102,24.965-124.37,70.297-169.703C131.63,40.965,191.898,16,256,16c64.108,0,124.378,24.965,169.708,70.297
		C471.037,131.628,496,191.896,496,256C496,320.115,471.037,380.387,425.708,425.714z"/>
	<path d="M430.038,114.969c-2.784-3.431-7.821-3.957-11.253-1.172c-3.431,2.784-3.956,7.822-1.172,11.252
		C447.526,161.919,464,208.426,464,256c0,55.567-21.635,107.803-60.919,147.085C363.797,442.367,311.563,464,256,464
		c-51.26,0-100.505-18.807-138.663-52.956c-3.292-2.946-8.35-2.665-11.296,0.626c-2.946,3.292-2.666,8.35,0.626,11.296
		C147.763,459.745,200.797,480,256,480c59.837,0,116.089-23.297,158.394-65.601C456.701,372.095,480,315.84,480,256
		C480,204.767,462.256,154.681,430.038,114.969z"/>
	<path d="M48,256c0-114.691,93.309-208,208-208c51.26,0,100.504,18.808,138.662,52.959c3.293,2.948,8.35,2.667,11.296-0.625
		c2.947-3.292,2.667-8.35-0.625-11.296C364.237,52.256,311.203,32,256,32c-59.829,0-116.08,23.301-158.389,65.611
		C55.301,139.921,32,196.171,32,256c0,51.239,17.744,101.328,49.963,141.038c1.581,1.949,3.889,2.96,6.217,2.96
		c1.771,0,3.553-0.585,5.036-1.788c3.431-2.784,3.956-7.822,1.172-11.253C64.474,350.088,48,303.58,48,256z"/>
	<path d="M340.086,367.902h42.906c4.418,0,8-3.582,8-8C390.992,232.031,287.407,128,160.083,128c-4.418,0-8,3.582-8,8v42.918
		c0,4.418,3.582,8,8,8c94.843,0,172.003,77.6,172.003,172.983C332.086,364.32,335.668,367.902,340.086,367.902z M168.083,171.087
		v-26.94c112.167,4.141,202.652,95.066,206.763,207.754H347.92C343.85,254.058,265.412,175.208,168.083,171.087z"/>
	<path d="M256.296,359.846c0,4.418,3.582,8,8,8h42.905c4.418,0,8-3.582,8-8c0-85.879-69.61-155.748-155.173-155.748
		c-4.418,0-8,3.582-8,8v42.905c0,4.418,3.582,8,8,8c25.728,0,49.883,10.05,68.022,28.306
		C246.265,309.601,256.296,333.941,256.296,359.846z M168.028,220.326c70.396,4.024,126.954,60.829,130.948,131.52h-26.956
		c-1.878-27.151-13.298-52.41-32.626-71.82c-19.269-19.392-44.365-30.85-71.366-32.743V220.326z"/>
	<path d="M152,329.926c0,20.809,16.916,37.737,37.709,37.737c20.808,0,37.737-16.929,37.737-37.737
		c0-20.8-16.929-37.722-37.737-37.722C168.916,292.204,152,309.126,152,329.926z M211.446,329.926
		c0,11.986-9.751,21.737-21.737,21.737c-11.97,0-21.709-9.751-21.709-21.737c0-11.978,9.739-21.722,21.709-21.722
		C201.695,308.204,211.446,317.949,211.446,329.926z"/>
</g>
</svg>